<?xml version="1.0" encoding="iso-8859-1"?>
<!-- Uploaded to: SVG Repo, www.svgrepo.com, Generator: SVG Repo Mixer Tools -->
<svg height="800px" width="800px" version="1.1" id="Layer_1" xmlns="http://www.w3.org/2000/svg" xmlns:xlink="http://www.w3.org/1999/xlink" 
	 viewBox="0 0 512 512" xml:space="preserve">
<g>
	<path style="fill:#64555A;" d="M165.628,48c-20.667-29.667-64.333-40-88-40c-8.496,0-13.312,7.565-11.791,15.924
		C73.604,66.61,55.396,108.426,69.628,136c18.346,35.545,75,34,80,64L200,112.037L165.628,48z"/>
	<path style="fill:#64555A;" d="M346.372,48c20.667-29.667,64.333-40,88-40c8.496,0,13.312,7.565,11.791,15.924
		c-7.766,42.686,10.441,84.501-3.791,112.075c-18.346,35.545-75,34-80,64L312,112.037L346.372,48z"/>
</g>
<path style="fill:#74666B;" d="M362.372,200c0-25.333,32-72,32-72s-41.333,3.333-56-24l24-8c-20-18-16-48-16-48
	S318.784,32.036,256,32.037C193.216,32.036,165.628,48,165.628,48s4,30-16,48l24,8c-14.667,27.333-56,24-56,24s32,46.667,32,72
	c0,50-48,76-48,136c0,24.036,10.372,120.036,106.372,128.036h48h48c96-8,106.372-104,106.372-128.036
	C410.372,276,362.372,250,362.372,200z"/>
<path style="fill:#64555A;" d="M320.23,457.091c0,36.27-28.929,46.909-64.615,46.909S191,493.361,191,457.091
	s28.929-75.054,64.615-75.054C291.302,382.037,320.23,420.821,320.23,457.091z"/>
<g>
	<path style="fill:#FFDEB7;" d="M344,440c0,0,12.927-84.922,32-80c31,8,84,4,96-48C472,312,491.334,431.333,344,440"/>
	<path style="fill:#FFDEB7;" d="M168,440c0,0-12.927-84.922-32-80c-31,8-84,4-96-48C40,312,20.666,431.333,168,440"/>
</g>
<path d="M226.344,434.343l-8,8c-3.125,3.124-3.125,8.189,0,11.313c1.562,1.562,3.609,2.343,5.657,2.343s4.095-0.781,5.657-2.343l8-8
	c3.125-3.124,3.125-8.189,0-11.313C234.533,431.219,229.468,431.219,226.344,434.343z"/>
<path d="M274.344,434.343c-3.125,3.124-3.125,8.189,0,11.313l8,8c1.562,1.562,3.609,2.343,5.657,2.343s4.095-0.781,5.657-2.343
	c3.125-3.124,3.125-8.189,0-11.313l-8-8C282.533,431.219,277.468,431.219,274.344,434.343z"/>
<path d="M479.897,310.721c-0.612-3.775-3.81-6.59-7.632-6.716c-3.798-0.131-7.2,2.47-8.06,6.197
	c-7.26,31.461-30.645,41.405-49.652,44.099c0.955-6.047,1.447-12.175,1.447-18.3c0-33.564-14.217-57.489-26.761-78.597
	c-10.8-18.174-21-35.354-21.228-56.68c2.194-10.512,15.36-16.536,30.569-23.486c17.875-8.169,38.134-17.428,48.529-37.568
	c8.82-17.089,6.813-37.889,4.687-59.91c-1.709-17.711-3.477-36.025-0.134-54.403c1.242-6.824-0.377-13.531-4.441-18.4
	C443.478,2.47,438.073,0,432,0c-19.662,0-59.74,7.105-85.309,32.474c-0.091-0.032-0.179-0.07-0.272-0.1
	C345.342,32.033,319.295,24,256,24h-2.373c-63.295,0-89.341,8.032-90.419,8.374c-0.093,0.029-0.181,0.067-0.272,0.1
	C137.368,7.105,97.29,0,77.628,0C71.556,0,66.15,2.47,62.407,6.956c-4.064,4.87-5.683,11.576-4.441,18.401
	c3.343,18.378,1.576,36.692-0.134,54.403c-2.126,22.021-4.134,42.821,4.686,59.91c10.396,20.141,30.655,29.399,48.53,37.568
	c15.209,6.951,28.375,12.975,30.569,23.486c-0.228,21.326-10.428,38.506-21.228,56.68C107.845,278.511,93.628,302.436,93.628,336
	c0,5.997,0.473,11.995,1.388,17.918c-18.522-3.191-40.267-13.583-47.221-43.717c-0.86-3.727-4.246-6.338-8.06-6.197
	c-3.822,0.126-7.021,2.941-7.632,6.716c-0.328,2.022-7.661,49.974,23.825,89.253c22.319,27.844,58.054,43.855,106.258,47.642
	c4.29,10.402,11.606,17.497,22.169,21.545C188.231,490.718,204.98,512,256,512c50.925,0,67.708-21.203,71.625-42.719
	c10.555-3.992,17.883-11.123,22.198-21.667c48.2-3.787,83.932-19.799,106.25-47.641
	C487.559,360.694,480.225,312.743,479.897,310.721z M432,16c1.298,0,2.258,0.395,2.936,1.207c1,1.198,1.368,3.174,0.984,5.285
	c-3.742,20.566-1.781,40.881-0.051,58.804c1.975,20.461,3.681,38.132-2.979,51.035c-7.858,15.225-24.687,22.916-40.962,30.354
	c-4.964,2.269-9.972,4.559-14.693,7.09c7.091-15.061,16.469-30.11,21.363-37.252c1.74-2.54,1.861-5.853,0.322-8.52
	c-1.539-2.667-4.481-4.225-7.548-3.978c-0.313,0.022-27.175,1.883-42.22-11.976l13.377-4.459c2.702-0.9,4.721-3.169,5.302-5.957
	s-0.363-5.674-2.48-7.579c-10.93-9.837-13.302-27.766-13.629-39.055C370.871,25.367,409.956,16,432,16z M76.737,132.331
	c-6.659-12.903-4.954-30.574-2.979-51.035c1.73-17.923,3.691-38.238-0.05-58.804c-0.384-2.111-0.017-4.087,0.983-5.286
	C75.369,16.395,76.33,16,77.628,16c22.045,0,61.13,9.367,80.277,34.999c-0.327,11.293-2.7,29.219-13.628,39.055
	c-2.117,1.905-3.061,4.792-2.48,7.579s2.6,5.056,5.302,5.957l13.378,4.459c-15.044,13.858-41.906,12-42.206,11.977
	c-3.07-0.248-6.017,1.294-7.563,3.963c-1.547,2.669-1.421,5.99,0.322,8.534c4.894,7.143,14.271,22.192,21.363,37.252
	c-4.721-2.531-9.73-4.822-14.693-7.09C101.424,155.247,84.595,147.556,76.737,132.331z M68.529,390.112
	C57.375,376.258,51.9,360.851,49.32,347.49c4.129,4.471,8.891,8.364,14.274,11.667c16.208,9.945,34.335,12.033,46.69,12.033
	c0.002,0,0.005,0,0.007,0c9.18-0.001,18.535-1.137,27.097-3.289c1.394,1.024,7.627,7.07,15.231,36.861
	c2.515,9.854,4.47,19.546,5.748,26.456C117.417,427.139,87.223,413.333,68.529,390.112z M256,496
	c-50.746,0-56.615-21.775-56.615-38.154c0-30.45,24.731-65.846,56.615-65.846c31.885,0,56.616,35.396,56.616,65.846
	C312.616,474.225,306.747,496,256,496z M328.285,450.885C324.866,414.203,295.079,376,256,376
	c-39.017,0-68.773,38.083-72.269,74.712c-3.741-2.93-6.263-6.982-7.917-12.518c-0.557-3.544-3.532-21.79-8.462-40.351
	c-8.46-31.847-17.637-46.049-29.756-46.049c-1.204,0-2.414,0.155-3.596,0.46c-7.082,1.827-14.848,2.824-22.538,2.918
	c-1.215-6.307-1.834-12.741-1.834-19.172c0-29.169,12.463-50.141,24.516-70.423c11.5-19.352,23.387-39.362,23.48-65.272
	c0-0.003,0-0.007,0-0.011c0-0.098,0.004-0.195,0.004-0.294c0-19.502-15.605-48.098-25.583-64.389
	c15.134-1.565,37.694-7.443,48.632-27.828c1.116-2.079,1.256-4.545,0.385-6.737c-0.872-2.192-2.667-3.889-4.905-4.635l-12.959-4.32
	c9.744-15.497,10.911-35.458,10.749-45.9c10.479-2.209,35.498-6.19,79.681-6.19H256c43.9,0,69.123,4.005,79.68,6.21
	c-0.16,10.448,1.012,30.394,10.749,45.88l-12.959,4.32c-2.238,0.746-4.033,2.442-4.905,4.635c-0.871,2.193-0.73,4.658,0.385,6.737
	c10.938,20.385,33.499,26.264,48.632,27.828C367.605,151.902,352,180.498,352,200c0,0.099,0.004,0.196,0.004,0.294
	c0,0.004,0,0.008,0,0.011c0.093,25.91,11.979,45.92,23.479,65.272C387.537,285.859,400,306.831,400,336
	c0,6.413-0.616,12.829-1.825,19.119c-6.909-0.251-13.818-1.225-20.176-2.865c-1.182-0.305-2.392-0.46-3.596-0.46
	c-12.119,0-21.295,14.202-29.756,46.049c-4.933,18.57-7.908,36.824-8.463,40.356C334.483,443.91,332.002,447.982,328.285,450.885z
	 M443.471,390.112c-18.694,23.221-48.889,37.027-89.84,41.105c1.272-6.878,3.216-16.519,5.722-26.349
	c7.616-29.882,13.863-35.942,15.259-36.968c8.564,2.152,17.919,3.289,27.097,3.289c12.355,0,30.486-2.088,46.697-12.033
	c5.383-3.303,10.145-7.198,14.274-11.667C460.1,360.851,454.623,376.26,443.471,390.112z"/>
<path d="M320,208c-8.822,0-16,7.178-16,16s7.178,16,16,16s16-7.178,16-16S328.823,208,320,208z"/>
<path d="M192,208c-8.822,0-16,7.178-16,16s7.178,16,16,16s16-7.178,16-16S200.823,208,192,208z"/>
</svg>